<?xml version="1.0" encoding="UTF-8" standalone="no"?>
<!-- Created with Inkscape (http://www.inkscape.org/) -->

<svg
   width="512"
   height="512"
   viewBox="0 0 512 512"
   version="1.1"
   id="svg1"
   sodipodi:docname="kitten.svg"
   inkscape:version="1.3 (0e150ed6c4, 2023-07-21)"
   inkscape:export-filename="kitten.png"
   inkscape:export-xdpi="96"
   inkscape:export-ydpi="96"
   xmlns:inkscape="http://www.inkscape.org/namespaces/inkscape"
   xmlns:sodipodi="http://sodipodi.sourceforge.net/DTD/sodipodi-0.dtd"
   xmlns="http://www.w3.org/2000/svg"
   xmlns:svg="http://www.w3.org/2000/svg">
  <sodipodi:namedview
     id="namedview1"
     pagecolor="#ffffff"
     bordercolor="#808080"
     borderopacity="1"
     inkscape:showpageshadow="0"
     inkscape:pageopacity="0"
     inkscape:pagecheckerboard="true"
     inkscape:deskcolor="#404040"
     inkscape:document-units="mm"
     inkscape:zoom="0.97503397"
     inkscape:cx="175.89131"
     inkscape:cy="346.65459"
     inkscape:window-width="1920"
     inkscape:window-height="1056"
     inkscape:window-x="0"
     inkscape:window-y="104"
     inkscape:window-maximized="1"
     inkscape:current-layer="layer1" />
  <defs
     id="defs1">
    <inkscape:path-effect
       effect="mirror_symmetry"
       start_point="245.63272,315"
       end_point="245.63272,335.31636"
       center_point="245.63272,325.15818"
       id="path-effect4"
       is_visible="true"
       lpeversion="1.2"
       lpesatellites=""
       mode="free"
       discard_orig_path="false"
       fuse_paths="false"
       oposite_fuse="false"
       split_items="false"
       split_open="false"
       link_styles="false" />
    <inkscape:path-effect
       effect="mirror_symmetry"
       start_point="256,0"
       end_point="256,512"
       center_point="256,256"
       id="path-effect3"
       is_visible="true"
       lpeversion="1.2"
       lpesatellites=""
       mode="vertical"
       discard_orig_path="false"
       fuse_paths="false"
       oposite_fuse="false"
       split_items="false"
       split_open="false"
       link_styles="false" />
    <inkscape:path-effect
       effect="mirror_symmetry"
       start_point="256,13.343905"
       end_point="256,525.3439"
       center_point="256,269.3439"
       id="path-effect2"
       is_visible="true"
       lpeversion="1.2"
       lpesatellites=""
       mode="vertical"
       discard_orig_path="false"
       fuse_paths="false"
       oposite_fuse="false"
       split_items="false"
       split_open="false"
       link_styles="false" />
  </defs>
  <g
     inkscape:label="Слой 1"
     inkscape:groupmode="layer"
     id="layer1">
    <path
       style="fill:#ffffff;stroke:#000000;stroke-width:18.8976378;stroke-linecap:round;stroke-linejoin:round;stroke-dasharray:none;stroke-opacity:1"
       d="M 47.718971,263.83229 C 37.8561,176.80679 29.733733,38.726341 55.261199,30.023792 80.788664,21.321242 215.38815,115.30878 214.22778,195.95242 m 250.05325,67.87987 C 474.1439,176.80679 482.26627,38.726341 456.7388,30.023792 431.21134,21.321242 296.61185,115.30878 297.77222,195.95242"
       id="path2"
       inkscape:path-effect="#path-effect2"
       inkscape:original-d="M 47.718971,263.83229 C 37.8561,176.80679 29.733733,38.726341 55.261199,30.023792 80.788664,21.321242 215.38815,115.30878 214.22778,195.95242"
       transform="translate(0,-13.343905)" />
    <ellipse
       style="fill:#ffffff;stroke:#000000;stroke-width:18.5126;stroke-linecap:round;stroke-linejoin:round;stroke-dasharray:none;stroke-opacity:1"
       id="path1"
       cx="256"
       cy="320"
       rx="246.74368"
       ry="182.74368" />
    <path
       style="fill:#000000;fill-opacity:1;stroke:none;stroke-width:12.2569;stroke-linecap:round;stroke-linejoin:round;stroke-dasharray:none;stroke-opacity:1"
       id="path3"
       inkscape:path-effect="#path-effect3"
       sodipodi:type="arc"
       sodipodi:cx="160"
       sodipodi:cy="288"
       sodipodi:rx="32"
       sodipodi:ry="32"
       d="m 192,288 c 0,17.67311 -14.32689,32 -32,32 -17.67311,0 -32,-14.32689 -32,-32 0,-17.67311 14.32689,-32 32,-32 17.67311,0 32,14.32689 32,32 z m 128,0 c 0,17.67311 14.32689,32 32,32 17.67311,0 32,-14.32689 32,-32 0,-17.67311 -14.32689,-32 -32,-32 -17.67311,0 -32,14.32689 -32,32 z" />
    <path
       id="path4"
       d="m 256,344.22012 c 0,12.46452 -6.64972,23.9822 -17.44432,30.21446 -10.79458,6.23225 -24.09407,6.23225 -34.88864,0 -10.79459,-6.23226 -17.44432,-17.74994 -17.44432,-30.21446 m 69.77728,0 c 0,12.46452 6.64972,23.9822 17.44432,30.21446 10.79458,6.23225 24.09407,6.23225 34.88864,0 10.79459,-6.23226 17.44432,-17.74994 17.44432,-30.21446"
       style="fill:none;fill-opacity:1;stroke:#000000;stroke-width:17.1727;stroke-linecap:round;stroke-linejoin:round;stroke-dasharray:none;stroke-opacity:1" />
    <path
       sodipodi:type="star"
       style="fill:#000000;stroke-width:2.26772;stroke-linecap:round;stroke-linejoin:round"
       id="path5"
       inkscape:flatsided="true"
       sodipodi:sides="3"
       sodipodi:cx="253.52963"
       sodipodi:cy="270.14444"
       sodipodi:r1="27.088402"
       sodipodi:r2="13.544201"
       sodipodi:arg1="1.5707963"
       sodipodi:arg2="2.6179939"
       inkscape:rounded="0.2"
       inkscape:randomized="0"
       d="m 253.52963,297.23284 c -9.38369,0 -28.15109,-32.50608 -23.45924,-40.6326 4.69185,-8.12652 42.22664,-8.12652 46.91849,0 4.69185,8.12652 -14.07555,40.6326 -23.45925,40.6326 z"
       inkscape:transform-center-y="3.7246553"
       transform="translate(2.4703677,50.049526)" />
  </g>
</svg>
